<svg id="Capa_1" data-name="Capa 1" xmlns="http://www.w3.org/2000/svg" viewBox="0 0 20.29 31.89"><defs><style>.cls-1{fill:#1e2c3c;}.cls-2{fill:#1e90e4;}</style></defs><title>logo</title><g id="LOGO_AZUL"><path class="cls-1" d="M16.85,20.29h.61l.2,0,.42,0,.19,0,.49-.08.1,0,.58-.14.14,0,.44-.13.16-.06.44-.17.11,0,.55-.25.05,0,.47-.25.12-.07.42-.26.08-.05a10.19,10.19,0,0,0,1-.72l.07-.06.4-.36.05-.05a10.22,10.22,0,0,0,.82-.9l0,0,.34-.45,0-.07c.11-.16.23-.33.33-.5h0a10.15,10.15,0,1,0-17.26,0h0l8.63,16.41V20.29Zm-1-6.24a4,4,0,0,1-2.8-2.8,4.07,4.07,0,0,1,5-5A4,4,0,0,1,20.88,9,4.07,4.07,0,0,1,15.86,14.06Z" transform="translate(-6.71)"/><path class="cls-2" d="M25.49,15.48h0c-.11.17-.22.34-.33.5l0,.07-.34.45,0,0a10.22,10.22,0,0,1-.82.9l-.05.05h0l-.38.34-.08.07a10.19,10.19,0,0,1-1,.72l-.09.06-.41.25-.12.07-.47.25-.05,0-.55.25-.11,0-.44.17-.16.06-.44.13-.14,0-.58.14-.1,0-.49.08-.19,0-.42,0h0l-.2,0h-.61v11.6l8.63-16.41h0Z" transform="translate(-6.71)"/></g></svg>